<?xml version="1.0" standalone="no"?>
<!DOCTYPE svg PUBLIC "-//W3C//DTD SVG 20010904//EN"
        "http://www.w3.org/TR/2001/REC-SVG-20010904/DTD/svg10.dtd">
<svg version="1.0" xmlns="http://www.w3.org/2000/svg"
     width="500.000000pt" height="500.000000pt" viewBox="0 0 500.000000 500.000000"
     preserveAspectRatio="xMidYMid meet">
    <metadata>
        Created by potrace 1.14, written by Peter Selinger 2001-2017
    </metadata>
    <g transform="translate(0.000000,500.000000) scale(0.100000,-0.100000)"
       fill="#000000" stroke="none">
        <path d="M469 2976 c-150 -40 -220 -191 -151 -326 38 -75 79 -104 220 -154 66
-24 133 -51 147 -60 65 -42 82 -128 43 -206 -46 -88 -169 -117 -276 -64 -56
28 -97 73 -133 147 -31 65 -43 60 -35 -14 3 -34 6 -87 6 -117 l0 -55 23 21 24
22 49 -22 c42 -20 66 -23 164 -23 99 0 122 4 167 24 61 27 115 83 133 136 20
60 9 156 -23 201 -38 55 -81 81 -216 129 -128 46 -168 68 -196 112 -25 38 -25
119 1 163 38 68 149 99 229 66 46 -19 109 -87 137 -146 13 -27 26 -49 31 -50
4 0 7 50 7 112 l0 111 -25 -23 c-23 -22 -26 -22 -57 -7 -82 38 -181 47 -269
23z"/>
        <path d="M2940 2970 c-14 -5 -51 -16 -84 -25 -63 -17 -63 -25 -3 -45 l37 -12
0 -104 0 -105 -37 8 c-203 43 -375 -81 -377 -272 -1 -91 18 -154 62 -206 93
-108 260 -104 334 9 l18 27 0 -57 c0 -32 3 -58 6 -58 13 0 160 44 167 50 4 4
-10 15 -33 25 l-40 18 0 379 c0 296 -3 378 -12 377 -7 0 -24 -4 -38 -9z m-147
-299 c14 -5 41 -26 61 -47 l36 -37 0 -154 c0 -172 -7 -200 -63 -233 -43 -27
-92 -25 -143 5 -79 46 -121 182 -95 307 26 122 116 192 204 159z"/>
        <path d="M3188 2952 c-43 -14 -78 -29 -78 -32 0 -3 17 -14 38 -25 l37 -20 3
-349 c2 -366 1 -376 -42 -376 -11 0 -28 -5 -36 -10 -10 -7 31 -10 125 -10 94
0 135 3 125 10 -8 5 -27 10 -41 10 -15 0 -30 7 -33 16 -3 9 -6 195 -6 415 0
219 -3 399 -7 398 -5 0 -43 -13 -85 -27z"/>
        <path d="M1640 2920 c-39 -39 -11 -110 44 -110 25 0 66 41 66 65 0 7 -9 24
-21 39 -25 31 -61 34 -89 6z"/>
        <path d="M1016 2665 c-43 -19 -80 -36 -83 -38 -2 -3 13 -13 34 -23 l38 -19 3
-343 2 -342 -22 -9 c-76 -29 -74 -30 77 -29 116 0 142 2 115 10 -67 19 -65 15
-68 145 l-3 121 98 4 c81 3 107 9 148 30 115 59 172 165 163 298 -9 127 -81
214 -186 227 -65 7 -126 -21 -182 -84 l-40 -46 0 67 c0 36 -3 66 -7 65 -5 0
-43 -16 -87 -34z m304 -67 c120 -61 128 -298 14 -398 -40 -35 -72 -45 -121
-37 -80 13 -103 71 -103 254 0 131 6 149 64 184 41 25 92 24 146 -3z"/>
        <path d="M1948 2671 c-37 -14 -68 -29 -68 -33 0 -4 14 -15 30 -23 l30 -16 -2
-217 -3 -217 -35 -17 -35 -17 120 1 c98 0 114 2 88 10 l-33 11 0 203 0 202 31
26 c17 14 42 29 56 32 40 10 94 -8 117 -39 19 -26 21 -44 24 -223 3 -181 2
-194 -15 -200 -60 -19 -49 -23 67 -23 112 1 121 2 90 13 l-35 13 -5 214 c-4
184 -8 219 -24 253 -50 101 -177 99 -270 -5 -20 -21 -38 -39 -41 -39 -3 0 -5
27 -5 60 0 33 -3 59 -7 59 -5 -1 -38 -13 -75 -28z"/>
        <path d="M3555 2677 c-96 -46 -149 -136 -149 -257 -1 -197 153 -328 328 -279
48 13 120 81 141 132 18 45 7 49 -17 6 -40 -70 -176 -89 -257 -36 -53 36 -93
114 -99 199 l-5 68 192 0 191 0 -6 28 c-23 96 -94 152 -202 159 -56 3 -76 0
-117 -20z m176 -36 c31 -32 40 -86 17 -109 -16 -16 -238 -17 -238 -1 0 25 34
81 66 109 49 42 113 43 155 1z"/>
        <path d="M4010 2674 c-36 -14 -69 -29 -73 -33 -5 -5 5 -17 22 -27 l31 -18 0
-217 0 -216 -37 -16 c-37 -15 -34 -15 101 -16 141 -1 164 4 85 17 l-44 8 -2
184 c-3 176 -2 187 20 225 30 53 65 65 105 37 37 -27 64 -28 85 -4 23 25 21
58 -4 83 -17 17 -29 20 -61 16 -48 -6 -88 -41 -130 -112 l-29 -50 3 83 c2 45
1 82 -2 82 -3 -1 -34 -12 -70 -26z"/>
        <path d="M4468 2690 c-40 -12 -86 -48 -103 -80 -21 -41 -19 -109 5 -148 27
-43 65 -65 153 -86 96 -22 123 -48 120 -113 -2 -58 -28 -94 -78 -111 -75 -25
-151 22 -195 121 -11 26 -23 47 -25 47 -3 0 -5 -34 -5 -76 l0 -75 34 -14 c53
-22 165 -30 225 -15 156 37 193 209 64 296 -17 11 -68 29 -114 39 -95 20 -129
46 -129 95 0 68 43 109 112 110 58 0 96 -29 140 -107 16 -29 31 -53 33 -53 8
0 -9 137 -19 146 -28 28 -158 42 -218 24z"/>
        <path d="M1643 2667 c-35 -11 -63 -23 -63 -26 0 -3 14 -14 30 -23 l30 -17 0
-220 0 -219 -42 -15 c-42 -15 -41 -15 87 -15 116 0 126 1 95 12 l-35 13 -3
266 c-3 304 7 280 -99 244z"/>
    </g>
</svg>
